<svg xmlns="http://www.w3.org/2000/svg" width="77" height="69" viewBox="0 0 76.166 68.959" fill="#81b3d2"><path d="M71.914 46.042H4.252C1.914 46.042 0 47.955 0 50.294v3.454C0 56.086 1.914 58 4.252 58h.956v1.037c0 5.457 4.464 9.922 9.92 9.922h45.908c5.456 0 9.92-4.465 9.92-9.922V58h.956c2.34 0 4.252-1.914 4.252-4.252v-3.454c0-2.34-1.913-4.252-4.252-4.252zm-3.956 12.995c0 3.815-3.104 6.922-6.92 6.922H15.13a6.93 6.93 0 0 1-6.921-6.922V58h59.75v1.037zm5.208-5.3A1.27 1.27 0 0 1 71.914 55H4.252A1.27 1.27 0 0 1 3 53.748v-3.454a1.27 1.27 0 0 1 1.252-1.252h67.662a1.27 1.27 0 0 1 1.252 1.252v3.454zm-57.004-15.9l5.473 4 5.477-4 5.48 4 5.478-4 5.48 4 5.478-4 5.48 4 5.48-4 5.5 4 6.368-4.644-1.768-2.424-4.6 3.356-5.5-4-5.48 4-5.48-4-5.478 4-5.48-4-5.478 4-5.48-4-5.476 4-5.473-4.002-5.477 4.002-4.593-3.355-1.77 2.422 6.363 4.645zm54.726-6.753a54.08 54.08 0 0 0 .037-3C70.242 12.476 55.804 0 38.083 0S5.924 12.476 5.24 28.094c-.017.384-.004 2.4.04 3h65.608zM38.083 3c16.03 0 29.15 11.154 29.842 25.094H8.24C8.933 14.154 22.05 3 38.083 3z"/><circle cx="38.083" cy="15.042" r="2"/><circle cx="30.083" cy="10.083" r="2"/><circle cx="46.083" cy="10.083" r="2"/></svg>