<svg xmlns="http://www.w3.org/2000/svg" width="75" height="73" viewBox="0 0 74.695 72.346" fill="#81b3d2"><path d="M29.503 65.345h16V41.407h-16v23.938zm13.063-2.938H32.44V44.345h10.125v18.062zM72.62 39.44l2.075-2.078-9.907-9.913V.47H50.974v13.16L37.35 0 0 37.363l2.077 2.078L9.9 31.6v37.8H5.97v2.938h63.875V69.4h-5.06V31.6l7.833 7.832zM53.913 3.408h7.938v21.104l-7.938-7.94V3.408zm7.937 66H12.846V28.67l24.502-24.5 24.502 24.5v40.736zM29.753 27.2a7.75 7.75 0 1 0 7.75-7.75 7.75 7.75 0 0 0-7.75 7.75zm7.75-4.97a4.97 4.97 0 1 1 0 9.941 4.97 4.97 0 1 1 0-9.941zM16.9 41.407h3v3.938h-3zm5.946 0h3v3.938h-3zm-5.936 6h3v3.938h-3zm5.936 0h3v3.938h-3zm26-6h3v3.938h-3zm5.938 0h3v3.938h-3zm-5.938 6h3v3.938h-3zm5.938 0h3v3.938h-3z"/></svg>